<svg width="47" height="40" viewBox="0 0 47 40" fill="none" xmlns="http://www.w3.org/2000/svg">
<path d="M9.84762 40C6.76402 40 4.32698 38.8557 2.53651 36.5672C0.845502 34.2786 0 31.5423 0 28.3582C0 22.4876 1.29312 17.3134 3.87937 12.8358C6.56508 8.35821 10.9915 4.0796 17.1587 0L19.8444 3.58209C16.5619 5.77114 13.6772 8.45771 11.1905 11.6418C8.80318 14.7264 7.60952 18.2587 7.60952 22.2388L9.84762 21.791C12.7323 21.791 14.9704 22.6368 16.5619 24.3284C18.1534 25.9204 18.9492 28.1095 18.9492 30.8955C18.9492 33.6816 18.1534 35.9204 16.5619 37.6119C14.9704 39.204 12.7323 40 9.84762 40ZM37.0032 40C33.9196 40 31.4825 38.8557 29.6921 36.5672C28.0011 34.2786 27.1556 31.5423 27.1556 28.3582C27.1556 22.4876 28.4487 17.3134 31.0349 12.8358C33.7206 8.35821 38.1471 4.0796 44.3143 0L47 3.58209C43.7175 5.77114 40.8328 8.45771 38.346 11.6418C35.9587 14.7264 34.7651 18.2587 34.7651 22.2388L37.0032 21.791C39.8878 21.791 42.1259 22.6368 43.7175 24.3284C45.309 25.9204 46.1048 28.1095 46.1048 30.8955C46.1048 33.6816 45.309 35.9204 43.7175 37.6119C42.1259 39.204 39.8878 40 37.0032 40Z" fill="#162C53"/>
</svg>
