<svg width="88" height="76" viewBox="0 0 88 76" fill="none" xmlns="http://www.w3.org/2000/svg">
<path d="M52 36H36V44H52V36Z" fill="white"/>
<path fill-rule="evenodd" clip-rule="evenodd" d="M24 12V8C24 3.58179 27.5815 0 32 0H56C60.4185 0 64 3.58179 64 8V12H76C82.6274 12 88 17.3726 88 24V64C88 70.6274 82.6274 76 76 76H12C5.37256 76 0 70.6274 0 64V24C0 17.3726 5.37256 12 12 12H24ZM32 8H56V12H32V8ZM12 20C9.79102 20 8 21.7908 8 24V48H80V24C80 21.7908 78.209 20 76 20H12ZM8 64V56H80V64C80 66.2092 78.209 68 76 68H12C9.79102 68 8 66.2092 8 64Z" fill="white"/>
</svg>
